<?xml version="1.0" encoding="UTF-8" standalone="no"?><svg xmlns="http://www.w3.org/2000/svg" xmlns:xlink="http://www.w3.org/1999/xlink" contentScriptType="application/ecmascript" contentStyleType="text/css" height="179px" preserveAspectRatio="none" style="width:300px;height:179px;background:#FFFFFF;" version="1.1" viewBox="0 0 300 179" width="300px" zoomAndPan="magnify"><defs><filter height="300%" id="f1xll5iroglitc" width="300%" x="-1" y="-1"><feGaussianBlur result="blurOut" stdDeviation="2.0"/><feColorMatrix in="blurOut" result="blurOut2" type="matrix" values="0 0 0 0 0 0 0 0 0 0 0 0 0 0 0 0 0 0 .4 0"/><feOffset dx="4.0" dy="4.0" in="blurOut2" result="blurOut3"/><feBlend in="SourceGraphic" in2="blurOut3" mode="normal"/></filter></defs><g><!--MD5=[0dc79514bfefb78c512cf0405485e600]
class SecurityCategory--><rect codeLine="2" fill="#FEFECE" filter="url(#f1xll5iroglitc)" height="97.6953" id="SecurityCategory" style="stroke:#A80036;stroke-width:1.5;" width="124" x="7" y="37.5"/><ellipse cx="22" cy="57.5938" fill="#EB937F" rx="11" ry="11" style="stroke:#A80036;stroke-width:1.0;"/><path d="M20.8594,58.3906 L20.8594,60.8906 L25.1875,60.8906 L25.1875,59.9688 Q25.1875,59.3594 25.4219,59.0938 Q25.6719,58.8281 26.0469,58.8281 Q26.4219,58.8281 26.6563,59.0938 Q26.8906,59.3594 26.8906,59.9688 L26.8906,62.5938 L18.8906,62.5938 Q18.2656,62.5938 18,62.3594 Q17.75,62.125 17.75,61.7344 Q17.75,61.3594 18.0156,61.125 Q18.2813,60.8906 18.8906,60.8906 L19.1563,60.8906 L19.1563,54.2344 L18.8906,54.2344 Q18.2656,54.2344 18,54 Q17.75,53.7656 17.75,53.375 Q17.75,53 18,52.7656 Q18.2656,52.5313 18.8906,52.5313 L26.5156,52.5313 L26.5156,55.125 Q26.5156,55.7344 26.2813,56 Q26.0625,56.25 25.6719,56.25 Q25.2969,56.25 25.0625,56 Q24.8281,55.7344 24.8281,55.125 L24.8281,54.2344 L20.8594,54.2344 L20.8594,56.6875 L22.3438,56.6875 Q22.3438,56.0313 22.4688,55.8438 Q22.7344,55.4375 23.2031,55.4375 Q23.5781,55.4375 23.8125,55.7031 Q24.0469,55.9531 24.0469,56.5625 L24.0469,58.5313 Q24.0469,59.0781 23.9219,59.2656 Q23.6563,59.6563 23.2031,59.6563 Q22.7344,59.6563 22.4688,59.25 Q22.3438,59.0625 22.3438,58.3906 L20.8594,58.3906 Z " fill="#000000"/><text fill="#000000" font-family="sans-serif" font-size="12" font-style="italic" lengthAdjust="spacing" textLength="44" x="60" y="54.957">«string»</text><text fill="#000000" font-family="sans-serif" font-size="12" lengthAdjust="spacing" textLength="92" x="36" y="70.0508">SecurityCategory</text><line style="stroke:#A80036;stroke-width:1.5;" x1="8" x2="130" y1="77.6875" y2="77.6875"/><text fill="#000000" font-family="sans-serif" font-size="11" lengthAdjust="spacing" textLength="22" x="13" y="93.1064">基金</text><text fill="#000000" font-family="sans-serif" font-size="11" lengthAdjust="spacing" textLength="22" x="13" y="106.9424">股票</text><text fill="#000000" font-family="sans-serif" font-size="11" lengthAdjust="spacing" textLength="18" x="13" y="120.7783">ETF</text><line style="stroke:#A80036;stroke-width:1.5;" x1="8" x2="130" y1="127.1953" y2="127.1953"/><!--MD5=[c40368751ea5476301fbcdc8cb25eba8]
class Security--><rect codeLine="9" fill="#FEFECE" filter="url(#f1xll5iroglitc)" height="158.6875" id="Security" style="stroke:#A80036;stroke-width:1.5;" width="120" x="166" y="7"/><ellipse cx="201.25" cy="23" fill="#ADD1B2" rx="11" ry="11" style="stroke:#A80036;stroke-width:1.0;"/><path d="M204.0156,18.875 Q204.1719,18.6563 204.3594,18.5469 Q204.5469,18.4375 204.7656,18.4375 Q205.1406,18.4375 205.375,18.7031 Q205.6094,18.9531 205.6094,19.5625 L205.6094,21.0156 Q205.6094,21.625 205.375,21.8906 Q205.1406,22.1563 204.7656,22.1563 Q204.4219,22.1563 204.2188,21.9531 Q204.0156,21.7656 203.9063,21.25 Q203.8594,20.8906 203.6719,20.7031 Q203.3438,20.3281 202.7344,20.1094 Q202.125,19.8906 201.5,19.8906 Q200.7344,19.8906 200.0938,20.2188 Q199.4688,20.5469 198.9688,21.2969 Q198.4844,22.0469 198.4844,23.0781 L198.4844,24.1719 Q198.4844,25.4063 199.375,26.2344 Q200.2656,27.0469 201.8594,27.0469 Q202.7969,27.0469 203.4531,26.7969 Q203.8438,26.6406 204.2656,26.2031 Q204.5313,25.9375 204.6719,25.8594 Q204.8281,25.7813 205.0313,25.7813 Q205.3594,25.7813 205.6094,26.0469 Q205.875,26.2969 205.875,26.6406 Q205.875,26.9844 205.5313,27.3906 Q205.0313,27.9688 204.2344,28.2969 Q203.1563,28.75 201.8594,28.75 Q200.3438,28.75 199.1406,28.125 Q198.1563,27.625 197.4688,26.5625 Q196.7813,25.4844 196.7813,24.2031 L196.7813,23.0469 Q196.7813,21.7188 197.3906,20.5781 Q198.0156,19.4219 199.1094,18.8125 Q200.2031,18.1875 201.4375,18.1875 Q202.1719,18.1875 202.8125,18.3594 Q203.4688,18.5156 204.0156,18.875 Z " fill="#000000"/><text fill="#000000" font-family="sans-serif" font-size="12" lengthAdjust="spacing" textLength="43" x="219.75" y="27.9102">Security</text><line style="stroke:#A80036;stroke-width:1.5;" x1="167" x2="285" y1="39" y2="39"/><text fill="#000000" font-family="sans-serif" font-size="11" lengthAdjust="spacing" textLength="24" x="172" y="54.4189">code</text><text fill="#000000" font-family="sans-serif" font-size="11" lengthAdjust="spacing" textLength="26" x="172" y="68.2549">name</text><text fill="#000000" font-family="sans-serif" font-size="11" lengthAdjust="spacing" textLength="53" x="172" y="82.0908">description</text><text fill="#000000" font-family="sans-serif" font-size="11" lengthAdjust="spacing" textLength="83" x="172" y="95.9268">securityCategory</text><text fill="#000000" font-family="sans-serif" font-size="11" lengthAdjust="spacing" textLength="71" x="172" y="109.7627">assetCategory</text><text fill="#000000" font-family="sans-serif" font-size="11" lengthAdjust="spacing" textLength="108" x="172" y="123.5986">pricingMoneyCategory</text><text fill="#000000" font-family="sans-serif" font-size="11" lengthAdjust="spacing" textLength="81" x="172" y="137.4346">exchangeRegion</text><text fill="#000000" font-family="sans-serif" font-size="11" lengthAdjust="spacing" textLength="77" x="172" y="151.2705">businessRegion</text><line style="stroke:#A80036;stroke-width:1.5;" x1="167" x2="285" y1="157.6875" y2="157.6875"/><!--MD5=[c5af87c78da60d4b93bde6c1a58c0cf1]
@startuml

enum SecurityCategory <<string>>
{
    基金
    股票
    ETF
}

class Security 
{
	code
	name
	description
	securityCategory
	assetCategory
	pricingMoneyCategory
	exchangeRegion
	businessRegion
}

@enduml

PlantUML version 1.2021.10(Mon Aug 30 09:43:48 EDT 2021)
(GPL source distribution)
Java Runtime: Java(TM) SE Runtime Environment
JVM: Java HotSpot(TM) 64-Bit Server VM
Default Encoding: Cp1252
Language: en
Country: US
--></g></svg>